<svg width="277" height="48" fill="none" xmlns="http://www.w3.org/2000/svg"><path d="M84.3078 29.7801c0 3.644-3.3927 6.2828-8.1675 6.2828H64.957V13.4451h10.8063c4.6492 0 7.9162 2.5131 7.9162 6.0314 0 2.3874-1.2565 3.8953-3.1413 4.7749 2.0104.7539 3.7696 2.7643 3.7696 5.5287ZM69.8575 17.5917v4.9005h5.7802c1.7591 0 2.89-1.0052 2.89-2.3874 0-1.3822-1.2565-2.5131-2.89-2.5131h-5.7802Zm6.2828 14.3246c1.8848 0 3.267-1.1309 3.267-2.7644 0-1.6335-1.2566-2.7644-3.267-2.7644h-6.2828v5.5288h6.2828ZM102.779 35.9372l-7.7907-8.9214h-1.2566v8.9214h-5.0261V13.4451h5.0261v8.6701h1.2566l7.5397-8.6701h5.905l-9.4238 10.8063 10.3038 11.6858h-6.534ZM109.313 24.754c0-6.7854 5.026-11.6859 12.063-11.6859 7.036 0 12.063 4.9005 12.063 11.6859 0 6.7853-5.027 11.6858-12.063 11.6858-7.037 0-12.063-4.9005-12.063-11.6858Zm18.848 0c0-4.2723-2.764-7.1623-6.785-7.1623-4.021 0-6.786 2.89-6.786 7.1623 0 4.2722 2.765 7.1623 6.786 7.1623 4.021 0 6.785-2.8901 6.785-7.1623ZM152.663 13.4451h5.027v22.4921h-5.027v-9.0471h-10.052v9.0471h-5.026V13.4451h5.026v8.9214h10.052v-8.9214ZM168.496 35.9372V17.9686h-7.79v-4.5235h20.481v4.5235h-7.79v17.9686h-4.901ZM202.8 23.3718v12.5654h-3.644l-1.005-3.5183c-1.131 1.8848-3.519 4.0209-7.163 4.0209-4.523 0-7.79-3.0157-7.79-7.1623s3.267-7.0366 9.926-7.0366h4.901c-.251-2.8901-1.759-4.9005-4.524-4.9005-2.261 0-3.769 1.2565-4.523 2.6387l-4.524-.7539c1.131-3.8953 5.027-6.1571 9.299-6.1571 5.529 0 9.047 3.7696 9.047 10.3037Zm-4.901 2.7644h-4.649c-3.77 0-5.026 1.2565-5.026 2.89 0 1.8848 1.508 3.1414 4.021 3.1414 3.267 0 5.654-2.3874 5.654-6.0314ZM222.151 35.9372l-7.791-8.9214h-1.256v8.9214h-5.026V13.4451h5.026v8.6701h1.256l7.54-8.6701h5.905l-9.424 10.8063 10.304 11.6858h-6.534ZM237.732 35.9372V17.9686h-7.791v-4.5235h20.482v4.5235h-7.79v17.9686h-4.901ZM275.554 26.1362H257.46c.502 3.5183 3.015 5.7801 6.785 5.7801 2.639 0 4.649-1.1309 5.78-2.7644l4.649.7539c-1.633 4.2723-6.031 6.534-10.806 6.534-6.785 0-11.686-4.9005-11.686-11.6858 0-6.7854 4.901-11.6859 11.686-11.6859s11.686 4.9005 11.686 11.4346c.125.6282 0 1.1309 0 1.6335Zm-17.717-3.8953h12.439c-.879-2.7644-3.141-4.7749-6.282-4.7749-3.016-.1256-5.403 1.8848-6.157 4.7749Z" fill="#000"/><path fill-rule="evenodd" clip-rule="evenodd" d="M4.24718 3.37413C.873047 6.74826.873047 12.1788.873047 23.04v1.92c0 10.8612 0 16.2917 3.374133 19.6659C7.62131 48 13.0519 48 23.913 48h1.92c10.8612 0 16.2918 0 19.6659-3.3741 3.3741-3.3742 3.3741-8.8047 3.3741-19.6659v-1.92c0-10.8612 0-16.29174-3.3741-19.66587C42.1248 0 36.6942 0 25.833 0h-1.92C13.0519 0 7.62131 0 4.24718 3.37413ZM8.97305 14.6002c.26 12.48 6.49995 19.9799 17.43995 19.9799h.6201v-7.14c4.02.4 7.0598 3.34 8.2798 7.14h5.6802c-1.56-5.68-5.6603-8.82-8.2202-10.02 2.5599-1.48 6.16-5.0799 7.02-9.9599h-5.1602c-1.12 3.96-4.4396 7.5599-7.5996 7.8999v-7.8999h-5.1602v13.8399c-3.2-.8-7.2399-4.6799-7.4199-13.8399H8.97305Z" fill="#000"/></svg>