<svg width="392" height="388" viewBox="0 0 392 388" fill="none" xmlns="http://www.w3.org/2000/svg">
<path fill-rule="evenodd" clip-rule="evenodd" d="M207.621 0.817907C210.508 0.2808 213.486 0 216.53 0C230.253 0 242.643 5.70936 251.454 14.8824C254.049 15.6766 256.618 16.5274 259.162 17.4334C261.184 17.1761 263.245 17.0435 265.336 17.0435C284.67 17.0435 301.357 28.375 309.118 44.7588C310.827 46.0806 312.512 47.4322 314.172 48.8129C340.542 49.2426 361.787 70.753 361.787 97.2253C361.787 99.6466 361.609 102.026 361.266 104.352C375.491 112.786 385.028 128.295 385.028 146.032C385.028 153.571 383.305 160.707 380.231 167.069C387.564 175.555 392 186.615 392 198.711C392 200.945 391.849 203.143 391.556 205.296C391.849 207.45 392 209.648 392 211.881C392 227.228 384.861 240.906 373.722 249.777C374.53 253.284 374.957 256.936 374.957 260.688C374.957 281.601 361.698 299.417 343.129 306.19C343.172 307.027 343.194 307.871 343.194 308.719C343.194 335.46 321.516 357.138 294.775 357.138C292.353 357.138 289.974 356.961 287.648 356.618C279.214 370.843 263.705 380.379 245.968 380.379C238.429 380.379 231.293 378.656 224.931 375.583C216.445 382.916 205.385 387.352 193.289 387.352C190.245 387.352 187.267 387.071 184.379 386.534C181.492 387.071 178.514 387.352 175.47 387.352C160.124 387.352 146.446 380.212 137.575 369.074C134.068 369.882 130.416 370.308 126.664 370.308C105.751 370.308 87.935 357.05 81.1623 338.481C80.3244 338.524 79.481 338.545 78.6324 338.545C51.8914 338.545 30.2135 316.868 30.2135 290.126C30.2135 287.705 30.3912 285.325 30.7343 282.999C16.509 274.566 6.97236 259.057 6.97236 241.32C6.97236 233.781 8.69533 226.645 11.769 220.283C4.43559 211.797 0 200.736 0 188.64C0 186.407 0.151235 184.209 0.444025 182.055C0.151235 179.902 0 177.704 0 175.47C0 160.124 7.1393 146.446 18.2777 137.575C17.4702 134.068 17.0435 130.416 17.0435 126.664C17.0435 105.751 30.3017 87.9351 48.8713 81.1624C48.8282 80.3245 48.8063 79.481 48.8063 78.6324C48.8063 51.8914 70.4842 30.2135 97.2253 30.2135C99.6466 30.2135 102.026 30.3912 104.352 30.7343C112.786 16.509 128.295 6.97227 146.032 6.97227C152.252 6.97227 158.199 8.14535 163.662 10.2824C165.909 9.84741 168.17 9.45393 170.445 9.10276C178.399 3.37438 188.161 0 198.711 0C201.755 0 204.733 0.2808 207.621 0.817907ZM207.621 96.02C204.733 96.5571 201.755 96.8379 198.711 96.8379C191.172 96.8379 184.036 95.115 177.674 92.0413C169.188 99.3746 158.128 103.81 146.032 103.81C143.61 103.81 141.231 103.632 138.905 103.289C133.242 112.84 124.39 120.278 113.816 124.134C113.86 124.972 113.881 125.816 113.881 126.664C113.881 142.01 106.742 155.689 95.6037 164.56C96.4112 168.066 96.8379 171.719 96.8379 175.47C96.8379 177.704 96.6867 179.902 96.3939 182.055C96.6867 184.209 96.8379 186.407 96.8379 188.64C96.8379 196.179 95.115 203.316 92.0413 209.678C99.3747 218.164 103.81 229.224 103.81 241.32C103.81 243.741 103.633 246.121 103.289 248.447C112.84 254.11 120.278 262.961 124.134 273.535C124.972 273.492 125.815 273.47 126.664 273.47C142.01 273.47 155.689 280.61 164.56 291.748C168.066 290.941 171.718 290.514 175.47 290.514C178.514 290.514 181.492 290.795 184.379 291.332C187.267 290.795 190.245 290.514 193.289 290.514C200.828 290.514 207.964 292.237 214.326 295.31C222.812 287.977 233.872 283.542 245.968 283.542C248.39 283.542 250.769 283.719 253.095 284.062C258.758 274.512 267.61 267.074 278.184 263.218C278.14 262.38 278.119 261.536 278.119 260.688C278.119 245.342 285.258 231.663 296.396 222.792C295.589 219.285 295.162 215.633 295.162 211.881C295.162 209.648 295.313 207.45 295.606 205.296C295.313 203.143 295.162 200.945 295.162 198.711C295.162 191.172 296.885 184.036 299.959 177.674C292.625 169.188 288.19 158.128 288.19 146.032C288.19 143.61 288.367 141.231 288.711 138.905C279.16 133.242 271.722 124.39 267.866 113.816C267.028 113.86 266.185 113.881 265.336 113.881C249.99 113.881 236.311 106.742 227.44 95.6037C223.934 96.4112 220.282 96.8379 216.53 96.8379C213.486 96.8379 210.508 96.5571 207.621 96.02Z" fill="url(#paint0_radial_1_57)"/>
<defs>
<radialGradient id="paint0_radial_1_57" cx="0" cy="0" r="1" gradientUnits="userSpaceOnUse" gradientTransform="translate(196 193.676) rotate(90) scale(193.676 196)">
<stop stop-color="#62F9E7"/>
<stop offset="1" stop-color="#6BAED3"/>
</radialGradient>
</defs>
</svg>
