<svg width="194" height="213" viewBox="0 0 194 213" fill="none" xmlns="http://www.w3.org/2000/svg">
<path d="M156.081 71.1813C156.081 54.4245 149.841 38.3542 138.732 26.5054C127.624 14.6565 112.558 8 96.8487 8C81.1393 8 66.0733 14.6565 54.965 26.5054C43.8568 38.3542 37.6162 54.4245 37.6162 71.1813C37.6162 144.893 8 165.953 8 165.953H185.697C185.697 165.953 156.081 144.893 156.081 71.1813Z" stroke="#F9F9F9" stroke-width="14.8081" stroke-linecap="round" stroke-linejoin="round"/>
<path d="M113.928 195.57C112.192 198.562 109.701 201.046 106.703 202.771C103.706 204.498 100.308 205.407 96.849 205.407C93.3898 205.407 89.9918 204.498 86.9946 202.771C83.9975 201.046 81.5058 198.562 79.7703 195.57" stroke="#F9F9F9" stroke-width="14.8081" stroke-linecap="round" stroke-linejoin="round"/>
</svg>
