<svg width="192" height="192" viewBox="0 0 192 192" fill="none" xmlns="http://www.w3.org/2000/svg">
<path d="M95.8487 184.697C144.918 184.697 184.697 144.918 184.697 95.8487C184.697 46.7789 144.918 7 95.8487 7C46.7789 7 7 46.7789 7 95.8487C7 144.918 46.7789 184.697 95.8487 184.697Z" stroke="#F9F9F9" stroke-width="13.3273" stroke-linecap="round" stroke-linejoin="round"/>
<path d="M122.503 64.7517C116.417 58.6656 105.699 54.4323 95.8487 54.1673M69.1941 122.503C74.9202 130.138 85.5671 134.493 95.8487 134.862M95.8487 54.1673C84.1287 53.8519 73.6365 59.154 73.6365 73.6366C73.6365 100.291 122.503 86.9639 122.503 113.618C122.503 128.82 109.498 135.353 95.8487 134.862M95.8487 54.1673V38.0971M95.8487 134.862V153.6" stroke="#F9F9F9" stroke-width="13.3273" stroke-linecap="round" stroke-linejoin="round"/>
</svg>
