<svg width="193" height="202" viewBox="0 0 193 202" fill="none" xmlns="http://www.w3.org/2000/svg">
<path d="M93.1114 9.39659C95.255 7.53447 98.4425 7.53447 100.586 9.39659L119.09 25.4725C120.257 26.4855 121.784 26.9818 123.323 26.8477L147.743 24.7189C150.572 24.4722 153.15 26.3458 153.79 29.1123L159.311 52.9949C159.66 54.4998 160.603 55.799 161.927 56.595L182.935 69.2264C185.368 70.6896 186.353 73.7211 185.244 76.3351L175.674 98.9017C175.071 100.324 175.071 101.93 175.674 103.352L185.244 125.919C186.353 128.533 185.368 131.564 182.935 133.028L161.927 145.659C160.603 146.455 159.66 147.754 159.311 149.259L153.79 173.141C153.15 175.908 150.572 177.782 147.743 177.535L123.323 175.407C121.784 175.272 120.257 175.769 119.09 176.781L100.586 192.858C98.4425 194.719 95.255 194.719 93.1114 192.858L74.6066 176.781C73.4406 175.769 71.9133 175.272 70.3744 175.407L45.9545 177.535C43.1258 177.782 40.5471 175.908 39.9075 173.141L34.3859 149.259C34.038 147.754 33.094 146.455 31.7702 145.659L10.7629 133.028C8.32942 131.564 7.34441 128.533 8.45308 125.919L18.0239 103.352C18.6269 101.93 18.6269 100.324 18.0239 98.9017L8.45308 76.3351C7.34441 73.7211 8.32942 70.6896 10.7629 69.2264L31.7702 56.595C33.094 55.799 34.038 54.4998 34.3859 52.9949L39.9075 29.1123C40.5471 26.3458 43.1258 24.4722 45.9545 24.7189L70.3744 26.8477C71.9133 26.9818 73.4406 26.4855 74.6066 25.4725L93.1114 9.39659Z" stroke="#F9F9F9" stroke-width="14.2466"/>
<path d="M68.3555 110.625L87.3509 129.62L134.839 82.1316" stroke="#F9F9F9" stroke-width="14.2466" stroke-linecap="round" stroke-linejoin="round"/>
</svg>
