<svg width="150" height="150" viewBox="0 0 150 150" fill="none" xmlns="http://www.w3.org/2000/svg">
<path d="M74.9289 6C36.8605 6 6 36.8605 6 74.9289C6 112.997 36.8605 143.858 74.9289 143.858C112.997 143.858 143.858 112.997 143.858 74.9289C143.858 36.8605 112.997 6 74.9289 6Z" stroke="black" stroke-width="10.3393" stroke-linecap="round" stroke-linejoin="round"/>
<path d="M21.6537 118.669C21.6537 118.669 37.0181 99.0541 74.9289 99.0541C112.84 99.0541 128.205 118.669 128.205 118.669" stroke="black" stroke-width="10.3393" stroke-linecap="round" stroke-linejoin="round"/>
<path d="M74.9289 74.9289C86.3498 74.9289 95.6076 65.6711 95.6076 54.2503C95.6076 42.8298 86.3498 33.5716 74.9289 33.5716C63.5081 33.5716 54.2503 42.8298 54.2503 54.2503C54.2503 65.6711 63.5081 74.9289 74.9289 74.9289Z" stroke="black" stroke-width="10.3393" stroke-linecap="round" stroke-linejoin="round"/>
</svg>
