<svg width="575" height="100" viewBox="0 0 575 100" fill="none" xmlns="http://www.w3.org/2000/svg">
<path d="M174.558 62.0419C174.558 69.6335 167.489 75.1309 157.542 75.1309H134.243V28.0105H156.756C166.442 28.0105 173.249 33.2461 173.249 40.576C173.249 45.5498 170.631 48.6911 166.704 50.5236C170.893 52.0943 174.558 56.2828 174.558 62.0419ZM144.453 36.6493V46.8587H156.495C160.16 46.8587 162.516 44.7644 162.516 41.8849C162.516 39.0053 159.898 36.6493 156.495 36.6493H144.453ZM157.542 66.4922C161.469 66.4922 164.348 64.1362 164.348 60.733C164.348 57.3299 161.73 54.9739 157.542 54.9739H144.453V66.4922H157.542Z" fill="white"/>
<path d="M213.039 74.8691L196.809 56.2828H194.191V74.8691H183.72V28.0105H194.191V46.0733H196.809L212.516 28.0105H224.819L205.186 50.5236L226.652 74.8691H213.039Z" fill="white"/>
<path d="M226.652 51.5709C226.652 37.4348 237.123 27.2253 251.783 27.2253C266.442 27.2253 276.914 37.4348 276.914 51.5709C276.914 65.707 266.442 75.9164 251.783 75.9164C237.123 75.9164 226.652 65.707 226.652 51.5709ZM265.919 51.5709C265.919 42.6704 260.16 36.6494 251.783 36.6494C243.406 36.6494 237.647 42.6704 237.647 51.5709C237.647 60.4714 243.406 66.4924 251.783 66.4924C260.16 66.4924 265.919 60.4714 265.919 51.5709Z" fill="white"/>
<path d="M316.966 28.0105H327.437V74.8691H316.966V56.021H296.024V74.8691H285.552V28.0105H296.024V46.5969H316.966V28.0105Z" fill="white"/>
<path d="M349.95 74.8691V37.4346H333.72V28.0105H376.39V37.4346H360.16V74.8691H349.95Z" fill="white"/>
<path d="M421.416 48.6913V74.8693H413.824L411.73 67.5395C409.374 71.4662 404.4 75.9164 396.809 75.9164C387.385 75.9164 380.578 69.6337 380.578 60.995C380.578 52.3562 387.385 46.3353 401.259 46.3353H411.468C410.945 40.3143 407.804 36.1259 402.044 36.1259C397.332 36.1259 394.191 38.7437 392.62 41.6232L383.196 40.0526C385.552 31.9374 393.667 27.2253 402.568 27.2253C414.086 27.2253 421.416 35.0787 421.416 48.6913ZM411.207 54.4505H401.521C393.667 54.4505 391.05 57.0683 391.05 60.4714C391.05 64.3981 394.191 67.0159 399.427 67.0159C406.233 67.0159 411.207 62.0421 411.207 54.4505Z" fill="white"/>
<path d="M461.73 74.8691L445.5 56.2828H442.882V74.8691H432.411V28.0105H442.882V46.0733H445.5L461.207 28.0105H473.511L453.877 50.5236L475.343 74.8691H461.73Z" fill="white"/>
<path d="M494.191 74.8691V37.4346H477.961V28.0105H520.631V37.4346H504.401V74.8691H494.191Z" fill="white"/>
<path d="M572.987 54.4505H535.291C536.338 61.7803 541.573 66.4924 549.427 66.4924C554.924 66.4924 559.113 64.1363 561.469 60.7332L571.154 62.3039C567.751 71.2044 558.589 75.9164 548.641 75.9164C534.505 75.9164 524.296 65.707 524.296 51.5709C524.296 37.4348 534.505 27.2253 548.641 27.2253C562.778 27.2253 572.987 37.4348 572.987 51.0473C573.249 52.3562 572.987 53.4034 572.987 54.4505ZM536.076 46.3353H561.992C560.16 40.5761 555.448 36.3876 548.903 36.3876C542.62 36.1259 537.647 40.3143 536.076 46.3353Z" fill="white"/>
<path fill-rule="evenodd" clip-rule="evenodd" d="M7.76491 7.02944C0.735474 14.0589 0.735474 25.3726 0.735474 48V52C0.735474 74.6274 0.735474 85.9411 7.76491 92.9706C14.7943 100 26.1081 100 48.7355 100H52.7355C75.3629 100 86.6766 100 93.706 92.9706C100.735 85.9411 100.735 74.6274 100.735 52V48C100.735 25.3726 100.735 14.0589 93.706 7.02944C86.6766 0 75.3629 0 52.7355 0H48.7355C26.1081 0 14.7943 0 7.76491 7.02944ZM17.6106 30.4169C18.1523 56.4169 31.1522 72.0418 53.9438 72.0418H55.2357V57.1668C63.6107 58.0001 69.9436 64.1252 72.4853 72.0418H84.319C81.069 60.2085 72.5269 53.6668 67.1936 51.1668C72.5269 48.0835 80.0269 40.5835 81.8186 30.4169H71.0683C68.7349 38.6669 61.8191 46.1668 55.2357 46.8751V30.4169H44.4854V59.2501C37.8188 57.5835 29.4023 49.5002 29.0273 30.4169H17.6106Z" fill="white"/>
</svg>
